<?xml version="1.0" encoding="UTF-8" standalone="no"?>
<!DOCTYPE svg PUBLIC "-//W3C//DTD SVG 1.1//EN" "http://www.w3.org/Graphics/SVG/1.1/DTD/svg11.dtd">
<svg width="100%" height="100%" viewBox="0 0 6087 1569" version="1.1" xmlns="http://www.w3.org/2000/svg" xmlns:xlink="http://www.w3.org/1999/xlink" xml:space="preserve" xmlns:serif="http://www.serif.com/" style="fill-rule:evenodd;clip-rule:evenodd;stroke-linejoin:round;stroke-miterlimit:2;">
    <g transform="matrix(1,0,0,1,-19,-13)">
        <g transform="matrix(14.9826,0,0,14.9826,-1124.12,-10478.2)">
            <g id="_2" serif:id="2">
                <g transform="matrix(6.6024,0.00826892,-0.00826892,6.6024,-1419.17,-2220.41)">
                    <text x="243.975px" y="455.007px" style="font-family:'Futura-Medium', 'Futura', sans-serif;font-weight:500;font-size:12.826px;fill:white;">I<tspan x="248.014px 257.489px 266.796px 276.308px " y="455.007px 455.007px 455.007px 455.007px ">CACH</tspan>I</text>
                </g>
                <g id="ICACHI-Logo-Pure" transform="matrix(0.630255,0,0,0.630255,-188.99,438.281)">
                    <g transform="matrix(1.03241,0,0,1.03241,391.792,394.967)">
                        <circle cx="108.526" cy="34.121" r="14.093" style="fill:white;"/>
                    </g>
                    <g transform="matrix(1.03241,0,0,1.03241,391.81,531.978)">
                        <circle cx="108.526" cy="34.121" r="14.093" style="fill:white;"/>
                    </g>
                    <g transform="matrix(1,0,0,1,399,398.5)">
                        <path d="M105.023,106.725C105.023,106.725 105.023,106.725 105.023,106.725ZM128,90.055L82.047,90.055C82.043,89.899 82.04,89.742 82.04,89.584C82.04,66.73 92.339,48.176 105.023,48.176C117.708,48.176 128.006,66.73 128.006,89.584C128.006,89.742 128.004,89.899 128,90.055Z" style="fill:white;"/>
                    </g>
                    <g transform="matrix(1,0,0,-1,399,598.622)">
                        <path d="M105.023,106.725C105.023,106.725 105.023,106.725 105.023,106.725ZM128,90.055L82.047,90.055C82.043,89.899 82.04,89.742 82.04,89.584C82.04,66.73 92.339,48.176 105.023,48.176C117.708,48.176 128.006,66.73 128.006,89.584C128.006,89.742 128.004,89.899 128,90.055Z" style="fill:white;"/>
                    </g>
                    <g transform="matrix(-1.00727,0,0,-0.990796,608.683,597.752)">
                        <path d="M84.091,151.028L84.091,176.695C57.855,167.993 38.908,143.243 38.908,114.103C38.908,90.581 51.253,69.919 69.813,58.25C57.481,68.198 49.588,83.43 49.588,100.492C49.588,123.467 63.902,143.125 84.091,151.028Z" style="fill:white;"/>
                    </g>
                    <g transform="matrix(1,0,0,1,399,398.5)">
                        <path d="M125.89,179.881L125.89,179.888L124.98,179.888L124.98,155.475L125.86,155.475L125.86,155.364C155.379,146.799 176.995,119.396 176.995,86.955C176.995,63.588 165.781,42.836 148.478,29.854C172.124,44.249 187.941,70.358 187.941,100.152C187.941,138.67 161.504,171.03 125.89,179.881Z" style="fill:white;"/>
                    </g>
                    <g transform="matrix(1,0,0,1,399,398.5)">
                        <path d="M84.001,45.238L84.001,45.298C54.482,53.863 32.866,81.265 32.866,113.707C32.866,137.074 44.08,157.826 61.383,170.808C37.737,156.413 21.92,130.304 21.92,100.51C21.92,62.017 48.322,29.675 83.901,20.799L83.901,20.774L85.009,20.774L85.009,45.238L84.001,45.238Z" style="fill:white;"/>
                    </g>
                    <g transform="matrix(1,0,0,1,399,398.5)">
                        <path d="M84.09,176.117C57.663,167.495 38.579,142.973 38.579,114.101C38.579,90.795 51.014,70.324 69.708,58.762C57.287,68.618 49.336,83.71 49.336,100.615C49.336,123.379 63.754,142.856 84.09,150.686L84.09,150.716L85.037,150.716L85.037,176.117L84.09,176.117Z" style="fill:white;"/>
                    </g>
                </g>
            </g>
        </g>
    </g>
</svg>
