<?xml version="1.0" encoding="UTF-8" standalone="no"?>
<!DOCTYPE svg PUBLIC "-//W3C//DTD SVG 1.1//EN" "http://www.w3.org/Graphics/SVG/1.1/DTD/svg11.dtd">
<svg width="100%" height="100%" viewBox="0 0 6191 1595" version="1.1" xmlns="http://www.w3.org/2000/svg" xmlns:xlink="http://www.w3.org/1999/xlink" xml:space="preserve" xmlns:serif="http://www.serif.com/" style="fill-rule:evenodd;clip-rule:evenodd;stroke-linejoin:round;stroke-miterlimit:2;">
    <g transform="matrix(1,0,0,1,-1871,-5848)">
        <g id="_1" serif:id="1" transform="matrix(15.2361,0,0,15.2361,709.5,-6924.02)">
            <g transform="matrix(6.6024,0.00826892,-0.00826892,6.6024,-1419.17,-2082.41)">
                <text x="243.975px" y="455.007px" style="font-family:'Futura-Medium', 'Futura', sans-serif;font-weight:500;font-size:12.826px;fill:rgb(119,119,119);">I<tspan x="248.014px 257.489px 266.796px 276.308px " y="455.007px 455.007px 455.007px 455.007px ">CACH</tspan>I</text>
            </g>
            <g id="ICACHI-Logo" transform="matrix(0.503992,0,0,0.503992,25.7169,807.775)">
                <path d="M230.106,100.139C255.47,110.404 273.369,135.27 273.369,164.318C273.369,184.003 265.129,201.752 251.933,214.357C273.369,199.212 286.673,174.44 286.673,147.013C286.673,111.195 263.983,79.91 230.106,68.701L230.106,100.139Z" style="fill:none;"/>
                <clipPath id="_clip1">
                    <path d="M230.106,100.139C255.47,110.404 273.369,135.27 273.369,164.318C273.369,184.003 265.129,201.752 251.933,214.357C273.369,199.212 286.673,174.44 286.673,147.013C286.673,111.195 263.983,79.91 230.106,68.701L230.106,100.139Z"/>
                </clipPath>
                <g clip-path="url(#_clip1)">
                    <path d="M230.106,214.357L230.106,68.701L286.673,68.701L286.673,214.357L230.106,214.357Z" style="fill:url(#_Linear2);fill-rule:nonzero;"/>
                </g>
                <path d="M121.628,181.624C121.628,217.441 144.317,248.73 178.193,259.934L178.193,228.498C152.827,218.227 134.935,193.364 134.935,164.318C134.935,144.648 143.156,126.915 156.328,114.316C134.915,129.462 121.628,154.218 121.628,181.624Z" style="fill:none;"/>
                <clipPath id="_clip3">
                    <path d="M121.628,181.624C121.628,217.441 144.317,248.73 178.193,259.934L178.193,228.498C152.827,218.227 134.935,193.364 134.935,164.318C134.935,144.648 143.156,126.915 156.328,114.316C134.915,129.462 121.628,154.218 121.628,181.624Z"/>
                </clipPath>
                <g clip-path="url(#_clip3)">
                    <path d="M178.193,114.316L178.193,259.934L121.628,259.934L121.628,114.316L178.193,114.316Z" style="fill:url(#_Linear4);fill-rule:nonzero;"/>
                </g>
                <path d="M266.727,81.498C284.205,98.156 294.67,121.543 294.67,147.013C294.67,186.774 269.206,221.484 231.305,233.387C230.906,233.511 230.503,233.572 230.106,233.572L230.106,264.868C274.888,253.347 307.977,212.698 307.977,164.318C307.977,130.483 291.778,100.45 266.727,81.498" style="fill:rgb(196,21,28);fill-rule:nonzero;"/>
                <path d="M113.63,181.624C113.63,141.87 139.093,107.162 176.994,95.259C177.393,95.135 177.796,95.096 178.193,95.096L178.193,63.767C133.414,75.29 100.325,115.941 100.325,164.318C100.325,198.168 116.536,228.218 141.603,247.168C124.106,230.509 113.63,207.11 113.63,181.624" style="fill:rgb(20,8,88);fill-rule:nonzero;"/>
                <path d="M221.425,77.81C221.425,68.26 213.684,60.519 204.135,60.519C194.589,60.519 186.845,68.26 186.845,77.81C186.845,87.358 194.589,95.103 204.135,95.103C213.684,95.103 221.425,87.358 221.425,77.81" style="fill:rgb(20,8,88);fill-rule:nonzero;"/>
                <path d="M221.425,250.851C221.425,241.301 213.684,233.562 204.135,233.562C194.589,233.562 186.845,241.301 186.845,250.851C186.845,260.404 194.589,268.144 204.135,268.144C213.684,268.144 221.425,260.404 221.425,250.851" style="fill:rgb(0,129,119);fill-rule:nonzero;"/>
                <path d="M176.299,151.272L232.002,151.272C232.002,122.444 219.533,99.073 204.15,99.073C188.769,99.073 176.299,122.444 176.299,151.272Z" style="fill:none;"/>
                <clipPath id="_clip5">
                    <path d="M176.299,151.272L232.002,151.272C232.002,122.444 219.533,99.073 204.15,99.073C188.769,99.073 176.299,122.444 176.299,151.272Z"/>
                </clipPath>
                <g clip-path="url(#_clip5)">
                    <path d="M232.002,99.073L232.002,151.272L176.299,151.272L176.299,99.073L232.002,99.073Z" style="fill:url(#_Linear6);fill-rule:nonzero;"/>
                </g>
                <path d="M176.299,177.36C176.299,206.191 188.769,229.559 204.15,229.559C219.533,229.559 232.002,206.191 232.002,177.36L176.299,177.36Z" style="fill:none;"/>
                <clipPath id="_clip7">
                    <path d="M176.299,177.36C176.299,206.191 188.769,229.559 204.15,229.559C219.533,229.559 232.002,206.191 232.002,177.36L176.299,177.36Z"/>
                </clipPath>
                <g clip-path="url(#_clip7)">
                    <path d="M232.002,177.36L232.002,229.559L176.299,229.559L176.299,177.36L232.002,177.36Z" style="fill:url(#_Linear8);fill-rule:nonzero;"/>
                </g>
            </g>
        </g>
    </g>
    <defs>
        <linearGradient id="_Linear2" x1="0" y1="0" x2="1" y2="0" gradientUnits="userSpaceOnUse" gradientTransform="matrix(-5.7e-06,-129.437,129.437,-5.7e-06,258.39,229.296)"><stop offset="0" style="stop-color:white;stop-opacity:1"/><stop offset="1" style="stop-color:rgb(196,21,28);stop-opacity:1"/></linearGradient>
        <linearGradient id="_Linear4" x1="0" y1="0" x2="1" y2="0" gradientUnits="userSpaceOnUse" gradientTransform="matrix(-5.7e-06,129.389,-129.389,-5.7e-06,149.91,99.2567)"><stop offset="0" style="stop-color:white;stop-opacity:1"/><stop offset="1" style="stop-color:rgb(0,129,119);stop-opacity:1"/></linearGradient>
        <linearGradient id="_Linear6" x1="0" y1="0" x2="1" y2="0" gradientUnits="userSpaceOnUse" gradientTransform="matrix(-5.8e-06,131.675,-131.675,-5.8e-06,204.151,98.4286)"><stop offset="0" style="stop-color:rgb(20,8,88);stop-opacity:1"/><stop offset="1" style="stop-color:rgb(0,129,119);stop-opacity:1"/></linearGradient>
        <linearGradient id="_Linear8" x1="0" y1="0" x2="1" y2="0" gradientUnits="userSpaceOnUse" gradientTransform="matrix(-5.8e-06,131.677,-131.677,-5.8e-06,204.151,98.4242)"><stop offset="0" style="stop-color:rgb(20,8,88);stop-opacity:1"/><stop offset="1" style="stop-color:rgb(0,129,119);stop-opacity:1"/></linearGradient>
    </defs>
</svg>
